<?xml version="1.0" encoding="UTF-8"?>
<svg id="Layer_2" data-name="Layer 2" xmlns="http://www.w3.org/2000/svg" viewBox="0 0 754.32 104.68">
  <defs>
    <style>
      .cls-1 {
        fill: #75154c;
      }

      .cls-2 {
        fill: #fffced;
      }
    </style>
  </defs>
  <g id="Layer_1-2" data-name="Layer 1">
    <g>
      <path class="cls-2" d="M533.04,90.53h14.62c2.75,0,5.29-.55,7.54-1.55,2.25,1.01,4.79,1.55,7.54,1.55h14.61c3.7,0,7.03-.99,9.77-2.75,5.07,2.37,10.87,3.67,17.17,3.67s11.91-1.37,16.73-3.75c4.28,2.39,9.4,3.75,15.03,3.75,3.76,0,7.51-.63,11.04-1.8,2.63,1.17,5.5,1.8,8.47,1.8,2.76,0,5.45-.53,8.01-1.54,1.56.39,3.22.61,4.97.61h12.77c9.47,0,16.3-6,17.45-14.83,5.25,11.35,16.23,15.75,26.7,15.75,16.72,0,28.84-9.37,28.84-22.27s-10.99-18.46-15.81-20.48c.19-.23.37-.47.54-.72,3.22-4.51,4.72-9.13,4.72-14.51,0-5.69-3.09-10.67-7.68-13.34-2.36-11.66-11.81-15.96-20.06-15.96h-.83c-8.16,0-14.83,6.34-15.37,14.36-2.78-.91-5.8-1.41-8.98-1.41-2.29,0-4.69.34-7.09.96-1.85-.62-3.86-.96-5.96-.96-6.11,0-13.2,3.01-16.94,4.83-5.12-3.07-11.48-4.83-18.61-4.83s-14.5,2.01-20.16,5.69c-5.4-3.6-11.99-5.69-19.19-5.69-2.91,0-5.71.31-8.37.88-1.77-8.3-8.44-13.83-17.19-13.83h-14.61c-2.75,0-5.3.55-7.56,1.55-2.24-1.01-4.78-1.55-7.53-1.55h-14.62c-9.93,0-17.18,7.13-17.6,16.93l-.1,1.39c-.08,1.08-.01,2.15.16,3.21-2.98-4.73-8.12-7.65-14.32-7.65h-11.29c-2.58,0-4.99.5-7.13,1.41-2.13-.92-4.53-1.41-7.12-1.41h-13.69c-2.78,0-5.35.59-7.61,1.65-4.17-1.66-8.92-2.57-14.06-2.57-3.51,0-7.05.48-10.41,1.4-.12-8.39-6.68-17.22-18.75-17.22-5.85,0-13.5,2.08-18.61,5.07-4.63,2.7-7.51,7.6-7.64,12.93-.49.17-.96.38-1.44.58-2.34-1.18-5.03-1.83-7.95-1.83h-11.29c-2.58,0-4.99.5-7.13,1.41-2.13-.92-4.53-1.41-7.12-1.41h-13.69c-1.73,0-3.37.23-4.91.65-2.91-1.02-6.09-1.58-9.45-1.58-2.29,0-4.69.34-7.09.96-1.85-.62-3.86-.96-5.96-.96-5.7,0-12.27,2.62-16.16,4.45-4.99-2.83-10.85-4.45-17.17-4.45-4.99,0-9.66.89-13.87,2.52-2.21-1.02-4.71-1.59-7.42-1.59h-11.29c-2.58,0-4.99.5-7.13,1.41-2.13-.92-4.53-1.41-7.12-1.41h-3.56c-.55-2.06-1.25-3.97-2.08-5.6l-.37-.74c-2.62-5.27-7.99-8.56-13.81-8.56-.43,0-.86.02-1.28.05-2.37.2-4.48.52-6.33.96,0,0-30.15-1.63-36.6,2-11.05,6.22-2.94,14.38-42.06,10.95-8.09-.71-15.37,2.33-21.23,6.42-3.87-3.04-8.64-5.15-14-6v-.91c0-9.33-7.27-16.63-16.54-16.63-4.38,0-7.98,1.59-11.16,2.99-.9.4-1.85.88-2.78,1.18h-29.86c-1.97-.72-3.71-1.13-4.57-1.32-1.08-.23-2.18-.35-3.25-.35-5.76,0-11.16,3.24-13.81,8.56l-.29.59C1.79,18.13,0,28.83,0,36.34c0,8.52,6.91,15.43,15.43,15.43h.57v6.8c-.83.59-1.6,1.26-2.31,2.02-2.92,3.11-4.41,7.29-4.14,11.55l.08,1.07c.45,10.2,7.71,17.33,17.63,17.33h19.43c2.45,0,4.73-.43,6.79-1.24,2.11.81,4.46,1.24,7,1.24h12.77c2.05,0,3.97-.28,5.74-.81,1.76.53,3.68.81,5.73.81h12.77c3.7,0,7-.92,9.71-2.57,4.98,2.26,10.65,3.49,16.8,3.49,14.28,0,26.06,2.73,30.11-7.57.75,9.83,7.87,6.64,17.57,6.64h32.02l.07.03c1.72.61,3.47.9,5.2.9,3.89,0,7.64-1.48,10.47-4.1,2.63,2,5.88,3.17,9.35,3.17h1.39c3.84,0,14.05,0,20.91-8.44,6.6,5.9,15.55,9.36,25.83,9.36,5.23,0,10.12-.98,14.42-2.72,2.41,1.16,5.2,1.8,8.27,1.8h12.77c3.83,0,7.22-.98,9.98-2.73.36,1.09.8,2.16,1.33,3.21,4.21,8.31,12.78,13.68,21.83,13.68,17.99,0,24.65-12.62,27.87-21.17,5.77,5.01,13.17,7.94,21.46,7.94,3.05,0,6.06-.5,8.93-1.45,2.43.95,5.06,1.45,7.81,1.45,3.5,0,6.93-.86,10.11-2.45,3.69,1.58,7.88,2.45,12.39,2.45,3.76,0,7.51-.63,11.04-1.8,1.36.61,2.79,1.06,4.26,1.37,4.21,8.3,12.77,13.66,21.82,13.66,13.37,0,36.21-33.23,34.81-25.17-2.66,15.3,27.02,11.02,27.02,11.02ZM695.45,62v-.49c.07,0,.13-.02.2-.02.01.28.03.55.04.83-.08-.1-.15-.22-.24-.32Z"/>
      <g>
        <path class="cls-1" d="M27.27,75.1c-1.66,0-2.13-.55-2.22-2.59l-.09-1.39h2.86c2.59,0,3.61-1.11,3.61-3.7V26.07h-5.27c-4.44,0-7.95,4.53-7.95,10.27h-2.77v-.74c0-5.37,1.57-13.32,3.42-16.93l.37-.74c1.3.28,3.06.83,4.26,1.48l.37.18h33.96c4.35,0,10.45-4.16,13.04-4.16.65,0,1.11.37,1.11,1.2v20.54c2.4-2.78,6.1-4.63,9.99-4.63,8.32,0,14.24,5.09,14.24,12.21v23.13c0,2.31,1.11,3.7,3.06,3.7h.55l-.09,1.39c-.09,1.85-.37,2.13-2.22,2.13h-12.77c-1.85,0-2.12-.28-2.21-2.13l-.1-1.39h.56c1.94,0,3.05-1.39,3.05-3.7v-23.13c0-3.52-3.05-6.66-6.47-6.66-3.8,0-6.85,2.31-7.59,5.74v24.05c0,2.31,1.11,3.7,3.05,3.7h.56l-.1,1.39c-.09,1.85-.37,2.13-2.21,2.13h-12.77c-1.85,0-2.13-.28-2.22-2.13l-.09-1.39h.55c1.94,0,3.06-1.39,3.06-3.7V26.07h-19.25v41.35c0,2.5,1.11,3.7,3.61,3.7h2.87l-.09,1.39c-.1,2.04-.56,2.59-2.22,2.59h-19.43Z"/>
        <path class="cls-1" d="M140.65,49.47c0,3.89-1.76,6.38-4.53,6.38h-23.22c.65,7.86,5.82,12.77,13.41,12.77,5.27,0,10.37-2.59,12.4-6.38l.28.18c.74.55,1.21,1.94,1.21,3.51,0,5.46-7.5,10.09-16.2,10.09-13.41,0-22.29-8.7-22.29-21.74s8.51-21.74,20.9-21.74c10.27,0,18.04,7.31,18.04,16.93ZM132.32,50.3c0-6.94-4.17-12.21-9.63-12.21-5.08,0-8.69,4.53-9.62,12.21h19.25Z"/>
        <path class="cls-1" d="M203.59,19.59l.18-.09c.84-.37,2.87-.74,5.09-.93l.37.74c1.85,3.61,2.59,11.66,1.48,15.08h-2.77c-.75-5.64-3.8-8.32-9.25-8.32h-14.15v17.11h10.55c2.31,0,3.88-1.94,3.88-4.9v-.55l1.39.09c2.12.18,2.59.56,2.59,2.22v12.76c0,1.67-.47,2.04-2.59,2.22l-1.39.09v-.55c0-3.33-1.2-4.9-3.88-4.9h-10.55v18.97h14.24c5.45,0,8.41-2.69,9.16-8.33h2.77c1.02,3.24.37,10.27-1.3,14.52l-.46,1.21-2.59-.93h-34.7c-1.66,0-2.12-.55-2.21-2.59l-.1-1.39h.56c2.03,0,3.52-1.48,3.52-3.7V27.27c0-2.22-1.48-3.7-3.52-3.7h-.56l.1-1.39c.09-2.03.55-2.59,2.21-2.59h31.92Z"/>
        <path class="cls-1" d="M230.17,75.1h-1.39l-11.65-34.88c-.74-2.22-1.94-3.33-3.7-3.33h-.28l.09-1.48c.09-1.57.47-1.94,1.76-1.94h13.69c1.3,0,1.66.37,1.76,1.94v1.48h-.37c-2.03,0-3.05,1.11-2.4,2.68l8.6,25.63,8.14-23.68c1.21-3.52.65-4.44-2.87-4.44h-.37l.09-1.66c0-1.57.37-1.94,1.66-1.94h11.29c1.2,0,1.57.37,1.66,1.94l.09,1.66h-.46c-2.41,0-4.26,1.76-5.55,5.36l-9.44,27.48c-1.48,3.89-3.89,5.18-10.36,5.18Z"/>
        <path class="cls-1" d="M293.56,49.47c0,3.89-1.76,6.38-4.53,6.38h-23.22c.65,7.86,5.82,12.77,13.41,12.77,5.27,0,10.37-2.59,12.4-6.38l.28.18c.74.55,1.21,1.94,1.21,3.51,0,5.46-7.5,10.09-16.2,10.09-13.41,0-22.29-8.7-22.29-21.74s8.5-21.74,20.9-21.74c10.27,0,18.04,7.31,18.04,16.93ZM285.23,50.3c0-6.94-4.17-12.21-9.63-12.21-5.08,0-8.69,4.53-9.62,12.21h19.25Z"/>
        <path class="cls-1" d="M308.84,32.54c1.39,0,2.22.56,2.22,1.57v2.87c2.77-2.5,7.5-4.44,10.82-4.44,5.64,0,10.18,3.42,10.18,7.68,0,2.31-1.85,3.89-6.85,5.92h-.28c-.93-6.02-2.68-8.51-6.11-8.51-2.86,0-6.38,2.5-7.77,5.37v24.89c0,2.31,1.11,3.7,3.05,3.7h.56l-.1,1.39c-.09,1.85-.37,2.13-2.21,2.13h-12.77c-1.85,0-2.13-.28-2.22-2.13l-.09-1.39h.56c1.94,0,3.05-1.39,3.05-3.7v-25.16c0-2.22-1.39-3.7-3.52-3.7h-.56l.1-2.31c3.98-2.22,9.43-4.17,11.93-4.17Z"/>
        <path class="cls-1" d="M345.5,89.25c-6.3,0-11.19-7.5-7.86-12.03l1.11-1.48c2.12,3.05,4.26,4.26,7.22,4.26,3.89,0,6.85-2.87,9.53-9.25h-6.94l-10.18-30.53c-.74-2.22-1.94-3.33-3.7-3.33h-.28l.09-1.48c.09-1.57.46-1.94,1.76-1.94h13.69c1.3,0,1.66.37,1.76,1.94v1.48h-.37c-2.03,0-3.05,1.11-2.4,2.68l8.51,25.72,8.23-23.77c1.21-3.52.65-4.44-2.87-4.44h-.37l.09-1.66c0-1.57.37-1.94,1.66-1.94h11.29c1.2,0,1.57.37,1.66,1.94l.09,1.66h-.46c-2.5,0-4.35,1.85-5.55,5.36l-11.19,32.56c-3.8,11.1-6.94,14.25-14.52,14.25Z"/>
        <path class="cls-1" d="M404.28,33.56v-8.23c0-2.03-1.3-3.33-3.52-3.33h-.47v-2.31c2.69-1.57,7.68-2.96,10.82-2.96,2.13,0,3.34.74,3.34,2.03v47.28c0,2.5,1.2,3.7,3.51,3.7h.56v2.31c-2.03,2.59-4.53,3.98-6.94,3.98-2.87,0-5.09-1.85-6.29-5.09-2.5,3.14-6.48,5.09-10.46,5.09-10.73,0-18.5-9.07-18.5-21.65s8.88-21.83,21.46-21.83c2.22,0,4.53.37,6.48,1.02ZM397.98,70.47c2.22,0,4.53-1.11,6.3-3.05v-27.11c-2.13-1.29-4.72-2.22-6.48-2.22-6.76,0-10.37,5.74-10.37,16.28s3.8,16.1,10.55,16.1Z"/>
        <path class="cls-1" d="M446.3,48.92v-3.98c0-4.63-2.49-7.77-6.38-7.77s-6.66,3.33-7.5,8.98h-.28c-4.99-2.03-6.85-3.61-6.85-5.92,0-3.89,7.4-7.68,14.99-7.68,9.71,0,16.28,4.9,16.28,12.21l-.09,21.18c0,2.5,1.21,3.7,3.52,3.7h.55l-.09,2.31c-2.12,2.68-4.53,4.07-6.85,4.07-2.68,0-5.08-1.94-6.29-5.27-3.14,3.24-8.23,5.27-13.23,5.27-7.22,0-12.3-3.89-12.3-9.53,0-8.42,7.59-13.88,24.51-17.58ZM446.3,53.64c-10.09,3.7-13.42,6.29-13.42,10.36,0,2.59,2.5,4.63,5.74,4.63,3.05,0,5.83-1.39,7.68-3.79v-11.19Z"/>
        <path class="cls-1" d="M471.21,89.25c-6.3,0-11.19-7.5-7.86-12.03l1.11-1.48c2.13,3.05,4.26,4.26,7.22,4.26,3.89,0,6.85-2.87,9.53-9.25h-6.94l-10.18-30.53c-.74-2.22-1.94-3.33-3.7-3.33h-.28l.09-1.48c.09-1.57.47-1.94,1.76-1.94h13.69c1.3,0,1.66.37,1.76,1.94v1.48h-.37c-2.03,0-3.05,1.11-2.4,2.68l8.51,25.72,8.23-23.77c1.21-3.52.65-4.44-2.87-4.44h-.37l.09-1.66c0-1.57.37-1.94,1.66-1.94h11.29c1.2,0,1.57.37,1.66,1.94l.09,1.66h-.46c-2.5,0-4.35,1.85-5.55,5.36l-11.19,32.56c-3.8,11.1-6.94,14.25-14.52,14.25Z"/>
        <path class="cls-1" d="M560.52,72.51l-.09-1.39h.55c2.04,0,3.52-1.48,3.52-3.7v-17.76h-18.59v17.76c0,2.22,1.48,3.7,3.51,3.7h.56l-.09,1.39c-.1,2.04-.56,2.59-2.22,2.59h-14.62c-1.66,0-2.12-.55-2.21-2.59l-.1-1.39h.56c2.03,0,3.52-1.48,3.52-3.7V27.27c0-2.22-1.48-3.7-3.52-3.7h-.56l.1-1.39c.09-2.03.55-2.59,2.21-2.59h14.62c1.66,0,2.12.56,2.22,2.59l.09,1.39h-.56c-2.03,0-3.51,1.48-3.51,3.7v15.91h18.59v-15.91c0-2.22-1.48-3.7-3.52-3.7h-.55l.09-1.39c.09-2.03.56-2.59,2.22-2.59h14.61c1.66,0,2.13.56,2.22,2.59l.09,1.39h-.55c-2.04,0-3.52,1.48-3.52,3.7v40.15c0,2.22,1.48,3.7,3.52,3.7h.55l-.09,1.39c-.09,2.04-.56,2.59-2.22,2.59h-14.61c-1.66,0-2.13-.55-2.22-2.59Z"/>
        <path class="cls-1" d="M620.95,49.47c0,3.89-1.76,6.38-4.53,6.38h-23.22c.65,7.86,5.82,12.77,13.41,12.77,5.27,0,10.37-2.59,12.4-6.38l.28.18c.74.55,1.21,1.94,1.21,3.51,0,5.46-7.5,10.09-16.2,10.09-13.41,0-22.29-8.7-22.29-21.74s8.5-21.74,20.9-21.74c10.27,0,18.04,7.31,18.04,16.93ZM612.63,50.3c0-6.94-4.17-12.21-9.63-12.21-5.08,0-8.69,4.53-9.62,12.21h19.25Z"/>
        <path class="cls-1" d="M648.27,48.92v-3.98c0-4.63-2.49-7.77-6.38-7.77s-6.66,3.33-7.5,8.98h-.28c-4.99-2.03-6.85-3.61-6.85-5.92,0-3.89,7.4-7.68,14.99-7.68,9.71,0,16.28,4.9,16.28,12.21l-.09,21.18c0,2.5,1.21,3.7,3.52,3.7h.55l-.09,2.31c-2.12,2.68-4.53,4.07-6.85,4.07-2.68,0-5.08-1.94-6.29-5.27-3.14,3.24-8.23,5.27-13.23,5.27-7.22,0-12.3-3.89-12.3-9.53,0-8.42,7.59-13.88,24.51-17.58ZM648.27,53.64c-10.09,3.7-13.42,6.29-13.42,10.36,0,2.59,2.5,4.63,5.74,4.63,3.05,0,5.83-1.39,7.68-3.79v-11.19Z"/>
        <path class="cls-1" d="M677.8,32.54c1.39,0,2.22.56,2.22,1.57v2.87c2.77-2.5,7.5-4.44,10.82-4.44,5.64,0,10.18,3.42,10.18,7.68,0,2.31-1.85,3.89-6.85,5.92h-.28c-.93-6.02-2.68-8.51-6.11-8.51-2.86,0-6.38,2.5-7.77,5.37v24.89c0,2.31,1.11,3.7,3.05,3.7h.56l-.1,1.39c-.09,1.85-.37,2.13-2.21,2.13h-12.77c-1.85,0-2.13-.28-2.22-2.13l-.09-1.39h.56c1.94,0,3.05-1.39,3.05-3.7v-25.16c0-2.22-1.39-3.7-3.52-3.7h-.56l.1-2.31c3.98-2.22,9.43-4.17,11.93-4.17Z"/>
        <path class="cls-1" d="M726.49,39.02h-5.27v19.24c0,8.51,1.57,12.21,5.18,12.21,3.14,0,4.16-1.66,5.08-7.86h.28c5.46,2.22,7.13,3.79,7.13,6.57,0,3.89-5.83,6.85-13.42,6.85-9.9,0-14.43-5.18-14.43-16.38v-20.63h-6.76v-4.63c6.85.19,10.92-5.36,10.92-14.8h.83c3.8,0,5.18,1.67,5.18,6.38v7.5h7.13c0,2.13-.47,3.61-1.85,5.55Z"/>
      </g>
    </g>
  </g>
</svg>